<?xml version="1.0" standalone="no"?>
<!DOCTYPE svg PUBLIC "-//W3C//DTD SVG 20010904//EN"
 "http://www.w3.org/TR/2001/REC-SVG-20010904/DTD/svg10.dtd">
<svg version="1.0" xmlns="http://www.w3.org/2000/svg"
 width="350.000000pt" height="350.000000pt" viewBox="0 0 350.000000 350.000000"
 preserveAspectRatio="xMidYMid meet">
<metadata>
Created by potrace 1.14, written by Peter Selinger 2001-2017
</metadata>
<g transform="translate(0.000000,350.000000) scale(0.100000,-0.100000)"
fill="#000000" stroke="none">
<path d="M1560 3489 c-469 -54 -886 -284 -1182 -654 -279 -349 -416 -819 -367
-1263 50 -462 265 -869 614 -1160 654 -548 1596 -548 2250 0 443 370 676 947
614 1516 -50 462 -265 869 -614 1160 -367 307 -849 454 -1315 401z m-1028
-1672 c43 -13 43 -13 46 -65 2 -29 -1 -52 -5 -52 -4 0 -30 11 -57 25 -57 29
-137 33 -191 11 -96 -41 -100 -202 -6 -250 16 -9 47 -18 70 -22 34 -5 41 -4
41 10 0 9 5 16 10 16 6 0 10 14 10 30 0 29 -1 30 -50 30 l-50 0 0 40 0 40 120
0 120 0 0 -105 0 -105 -27 -11 c-16 -6 -63 -15 -105 -22 -242 -35 -393 109
-329 313 25 80 77 115 196 133 43 7 158 -2 207 -16z m1093 -1 c39 -12 40 -12
36 -56 -1 -25 -5 -47 -7 -49 -2 -2 -26 6 -53 18 -68 29 -170 30 -196 1 -27
-30 -6 -46 81 -64 146 -31 194 -65 194 -138 0 -52 -28 -90 -87 -119 -37 -18
-64 -22 -137 -23 -50 0 -114 5 -143 13 l-51 13 -4 54 c-1 30 0 54 3 54 4 0 32
-12 64 -26 88 -41 225 -34 225 10 0 24 -28 37 -116 57 -145 31 -179 63 -170
158 3 30 11 60 18 68 15 14 102 39 158 45 48 5 137 -3 185 -16z m1008 2 l47
-10 0 -49 c0 -27 -3 -49 -7 -49 -5 0 -32 9 -61 20 -56 22 -151 27 -183 10 -19
-11 -26 -44 -11 -54 5 -3 50 -14 100 -25 111 -24 147 -42 168 -83 34 -66 -7
-141 -95 -175 -56 -22 -172 -23 -258 -4 l-63 14 0 53 c0 30 3 54 7 54 4 0 25
-9 48 -20 77 -37 218 -48 212 -16 -1 6 4 10 11 8 9 -2 12 5 10 19 -3 25 -14
29 -132 54 -62 13 -86 24 -115 50 -34 31 -36 37 -35 90 2 66 19 90 78 107 89
25 182 28 279 6z m-1803 -68 l0 -80 81 0 c101 0 109 7 109 94 l0 66 65 0 65 0
0 -220 0 -220 -65 0 -65 0 0 95 0 95 -95 0 -95 0 0 -95 0 -95 -65 0 -65 0 0
220 0 220 65 0 65 0 0 -80z m1077 -70 c32 -82 60 -150 63 -150 5 0 61 144 98
252 l17 48 68 0 c61 0 68 -2 63 -17 -3 -10 -44 -108 -90 -218 l-84 -200 -74
-3 -74 -3 -46 113 c-26 62 -67 161 -92 221 l-45 107 69 0 68 0 59 -150z m1203
-155 l0 -135 -35 0 c-21 0 -35 5 -35 12 0 9 -3 9 -12 0 -14 -14 -82 -16 -107
-2 -45 24 -54 138 -12 171 16 13 36 17 76 16 l55 -3 0 38 c0 37 1 38 35 38
l35 0 0 -135z m267 31 c13 -15 23 -38 23 -52 0 -23 -2 -24 -80 -24 -64 0 -80
-3 -80 -15 0 -33 83 -45 143 -20 13 6 17 2 17 -18 0 -31 -15 -37 -100 -37 -60
0 -73 3 -100 27 -31 26 -32 29 -27 86 3 32 8 61 11 64 12 12 74 22 120 19 39
-3 55 -9 73 -30z m-547 -131 c0 -34 -1 -35 -40 -35 -39 0 -40 1 -40 35 0 34 1
35 40 35 39 0 40 -1 40 -35z"/>
<path d="M2973 1528 c-21 -27 -23 -51 -8 -74 17 -27 55 -32 55 -9 0 8 5 15 10
15 6 0 10 18 10 40 0 37 -2 40 -29 40 -16 0 -33 -6 -38 -12z"/>
<path d="M3252 1538 c-21 -21 -13 -28 33 -28 25 0 45 4 45 8 0 15 -24 32 -45
32 -12 0 -26 -5 -33 -12z"/>
</g>
</svg>
